<svg width="120" height="51" viewBox="0 0 120 51" fill="none" xmlns="http://www.w3.org/2000/svg">
<g clip-path="url(#clip0_11_5)">
<path d="M25.7772 42.1061H25.6354L28.1674 25.2795C28.505 23.069 28.6738 21.1787 28.6738 19.6086C28.6738 18.6377 28.6063 17.7803 28.4712 17.0366C27.9446 13.9791 26.817 12.4503 25.0885 12.4503C23.3734 12.4503 21.7867 13.9791 20.3283 17.0366C19.41 18.9785 18.6808 21.7262 18.1406 25.2795C17.8165 27.49 17.6545 29.3802 17.6545 30.9503C17.6545 31.9213 17.7152 32.7786 17.8368 33.5223C18.2689 35.9601 19.2209 37.7677 20.6929 38.9453L19.1737 42.1061H19.0521C17.1886 41.0731 15.9057 38.7594 15.2035 35.1647C14.9874 34.0285 14.8794 32.727 14.8794 31.2602C14.8794 29.5042 15.0414 27.5106 15.3655 25.2795C16.0002 21.1477 16.9455 17.8526 18.2014 15.3942C20.4025 11.0352 22.8805 8.85571 25.6354 8.85571C28.3497 8.85571 30.166 10.9836 31.0843 15.2393C33.2719 10.9836 35.7229 8.85571 38.4372 8.85571C41.1785 8.85571 43.0016 11.0352 43.9063 15.3942C44.1359 16.5098 44.2507 17.7907 44.2507 19.2368C44.2507 21.0134 44.0751 23.0277 43.724 25.2795C43.0893 29.4732 42.1576 32.603 40.9287 34.6689C40.1725 35.9498 39.4027 36.9517 38.6195 37.6748H42.5492L42.5289 37.8917L40.9692 41.2694H33.3124L33.3529 41.0525L34.8924 37.6748C36.2428 37.0137 37.4379 35.6812 38.4777 33.6773C39.6121 31.4874 40.4426 28.6882 40.9692 25.2795C41.2933 23.069 41.4554 21.1787 41.4554 19.6086C41.4554 18.6377 41.3946 17.7803 41.2731 17.0366C40.7464 13.9791 39.6188 12.4503 37.8903 12.4503C36.1753 12.4503 34.5886 13.9791 33.1301 17.0366C32.2118 18.9372 31.4826 21.6848 30.9425 25.2795L28.694 40.2158L25.7772 42.1061ZM49.3147 29.6178C49.0581 31.3738 48.9299 32.789 48.9299 33.8632C48.9299 34.421 48.9636 34.8962 49.0311 35.2887C49.3822 37.148 50.0709 38.0776 51.0973 38.0776C52.1371 38.0776 53.1094 37.148 54.0141 35.2887C54.5813 34.1111 55.0607 32.2208 55.4523 29.6178C55.7089 27.8825 55.8372 26.4674 55.8372 25.3724C55.8372 24.794 55.7967 24.3188 55.7156 23.947C55.405 22.0877 54.7163 21.158 53.6495 21.158C52.5692 21.158 51.5834 22.098 50.6921 23.978C50.1655 25.1349 49.7063 27.0148 49.3147 29.6178ZM46.5396 29.6488C46.9853 26.6739 47.6807 24.2672 48.626 22.4286C50.3005 19.1645 52.1573 17.5324 54.1964 17.5324C56.249 17.5324 57.613 19.1645 58.2882 22.4286C58.4772 23.3169 58.5717 24.3188 58.5717 25.4344C58.5717 26.6739 58.457 28.0684 58.2274 29.6178C57.7547 32.634 57.0593 35.0304 56.141 36.8071C54.453 40.0712 52.5894 41.7032 50.5503 41.7032C48.5382 41.7032 47.1743 40.0712 46.4586 36.8071C46.2696 35.9601 46.175 34.9994 46.175 33.9252C46.175 32.6857 46.2966 31.2602 46.5396 29.6488ZM77.1263 8.42188H77.2478L74.0676 29.6178C73.622 32.572 72.9265 34.9685 71.9813 36.8071C70.3068 40.0712 68.4432 41.7032 66.3906 41.7032C64.365 41.7032 63.0011 40.0712 62.2989 36.8071C62.1233 35.9394 62.0355 34.9478 62.0355 33.8322C62.0355 32.5927 62.1503 31.1879 62.3799 29.6178C62.893 26.2091 64.2029 23.5235 66.3096 21.5609H62.9065L62.9268 21.344L64.4865 17.9663H70.9482L70.9279 18.1832L69.3885 21.5609C68.0921 22.7591 67.1536 23.916 66.5729 25.0316C65.8707 26.3951 65.3913 27.9238 65.1347 29.6178C64.8781 31.3325 64.7498 32.727 64.7498 33.8012C64.7498 34.3797 64.7904 34.8755 64.8714 35.2887C65.1955 37.148 65.8842 38.0776 66.9375 38.0776C67.9908 38.0776 68.9631 37.1376 69.8544 35.2577C70.408 34.1214 70.8807 32.2415 71.2723 29.6178L74.1892 10.3431L77.1263 8.42188ZM89.4015 33.2744H89.5433C89.1652 34.6379 88.7263 35.8155 88.2266 36.8071C86.5656 40.0712 84.7021 41.7032 82.6359 41.7032C80.6238 41.7032 79.2599 40.0712 78.5442 36.8071C78.3552 35.9601 78.2606 34.9788 78.2606 33.8632C78.2606 32.5617 78.3822 31.1466 78.6252 29.6178C79.0574 26.7463 79.7528 24.3498 80.7116 22.4286C82.3456 19.1645 84.2024 17.5324 86.282 17.5324C87.862 17.5324 89.0234 18.2865 89.7661 19.7946C90.3603 20.9721 90.6574 22.2323 90.6574 23.5751C90.6574 24.0916 90.6101 24.6081 90.5156 25.1245C90.178 27.2937 89.415 29.184 88.2266 30.7954C87.0383 32.3861 85.5798 33.1815 83.8513 33.1815H82.7777L82.8183 32.9646L84.3577 29.5868C85.357 29.5868 86.1335 29.1737 86.6872 28.3473C87.2273 27.5416 87.6122 26.457 87.8418 25.0935C87.8958 24.7423 87.9228 24.4118 87.9228 24.1019C87.9228 23.4202 87.7945 22.8314 87.5379 22.3356C87.1733 21.5506 86.5724 21.158 85.7351 21.158C84.6008 21.158 83.6285 22.0877 82.8183 23.947C82.2376 25.2898 81.7649 27.1801 81.4003 29.6178C81.1438 31.3738 81.0155 32.789 81.0155 33.8632C81.0155 34.421 81.0492 34.8962 81.1167 35.2887C81.4543 37.148 82.1431 38.0776 83.1829 38.0776C84.2362 38.0776 85.2085 37.148 86.0997 35.2887L89.4015 33.2744ZM98.0711 38.7284L96.5114 42.1061C94.5803 42.1061 93.6147 41.0525 93.6147 38.9453C93.6147 38.5321 93.6553 38.0776 93.7363 37.5818L97.8483 10.3431L100.765 8.42188H100.907L96.5114 37.5818C96.4168 38.2016 96.5924 38.5114 97.038 38.5114H98.0913L98.0711 38.7284ZM102.527 42.1061H102.386L100.238 40.3707L108.078 25.8063C106.7 24.2569 105.735 22.3769 105.181 20.1664C104.708 18.2245 104.472 16.2516 104.472 14.2477C104.472 12.9255 104.573 11.624 104.776 10.3431L107.693 8.42188H107.835C107.551 10.3225 107.409 12.0578 107.409 13.6279C107.409 15.4665 107.598 17.0779 107.976 18.4621C108.422 20.0735 109.05 21.4163 109.86 22.4905L117.436 8.42188H117.557L119.725 10.1882L111.825 24.8766C113.216 26.55 114.188 28.4093 114.742 30.4545C115.255 32.3345 115.512 34.2764 115.512 36.2803C115.512 37.5611 115.41 38.873 115.208 40.2158L112.271 42.1061H112.129C112.426 40.1848 112.574 38.4185 112.574 36.8071C112.574 35.0511 112.399 33.4914 112.048 32.1279C111.683 30.7024 111.015 29.3802 110.042 28.1614L102.527 42.1061Z" fill="white"/>
<path d="M2.7527 7.28702C3.89273 7.28702 4.81692 5.65576 4.81692 3.64351C4.81692 1.63125 3.89273 0 2.7527 0C1.61266 0 0.688477 1.63125 0.688477 3.64351C0.688477 5.65576 1.61266 7.28702 2.7527 7.28702Z" fill="white"/>
<path d="M7.35733 20.7293C7.29752 19.7221 6.70485 17.1301 6.31476 15.872C5.7133 13.9307 2.99917 8.93533 2.99917 8.93533C2.48687 7.79006 1.5232 7.43582 0.846875 8.14431C0.326508 8.68943 0.131277 9.70389 0.300819 10.665L0.424856 18.3035C0.427425 18.4539 1.0344 26.9019 1.0344 26.9019C1.05238 27.1781 1.24027 27.3786 1.45458 27.3567C1.66889 27.3348 1.8377 27.0979 1.83146 26.8205C1.83146 26.8205 1.69018 18.4259 1.69164 18.304L1.76247 13.9475C2.49348 15.3235 3.33972 16.9336 3.65201 17.8162C4.13348 19.1798 3.08064 20.1735 3.54596 22.6729C3.69825 23.4914 4.08174 24.2285 4.51366 24.5216L3.62486 34.944C3.61642 35.0434 3.65128 49.5551 3.65128 49.5551C3.65128 49.8129 3.7182 50.06 3.83733 50.2423C3.95646 50.4245 4.11803 50.5269 4.28651 50.5269C4.45498 50.5269 4.61655 50.4245 4.73568 50.2423C4.85481 50.06 4.92174 49.8129 4.92174 49.5551L5.44797 36.0281C5.68724 35.8967 5.85164 35.6744 5.87513 35.3932L7.22119 22.624C7.36797 22.199 7.41128 21.6371 7.35733 20.7293Z" fill="white"/>
<path d="M7.34339 24.7832L6.21788 35.46C6.18632 35.8316 6.03036 36.1522 5.78045 36.3711L5.45898 44.6266L7.64687 36.0612C7.72981 35.9299 7.78119 35.7833 7.78119 35.6267L7.34339 24.7832Z" fill="white"/>
</g>
<defs>
<clipPath id="clip0_11_5">
<rect width="120" height="50.5263" fill="white"/>
</clipPath>
</defs>
</svg>
